/* XPM */
static char *_675438136756[] = {
/* columns rows colors chars-per-pixel */
"30 32 202 2 ",
"   c #0E0A06",
".  c #150D05",
"X  c #1A0E09",
"o  c #160E0A",
"O  c #0F100F",
"+  c #1D1106",
"@  c #15120E",
"#  c #1B140C",
"$  c #1D180D",
"%  c #141310",
"&  c #1B1511",
"*  c #1E1A14",
"=  c #241407",
"-  c #2A1506",
";  c #23160B",
":  c #2A170A",
">  c #241B0D",
",  c #2B1B0C",
"<  c #361E06",
"1  c #321C0C",
"2  c #391D0C",
"3  c #241B11",
"4  c #2D1E13",
"5  c #2A1D1A",
"6  c #311E13",
"7  c #34210D",
"8  c #3B220D",
"9  c #2D2314",
"0  c #272218",
"q  c #2C231C",
"w  c #292418",
"e  c #312213",
"r  c #3C2414",
"t  c #332815",
"y  c #3C2A13",
"u  c #31231C",
"i  c #31291B",
"p  c #3B2C1A",
"a  c #2D2B24",
"s  c #292622",
"d  c #332B23",
"f  c #392E25",
"g  c #363124",
"h  c #383127",
"j  c #33332B",
"k  c #3A342B",
"l  c #3A3B2F",
"z  c #3B3533",
"x  c #3C3A33",
"c  c #44250B",
"v  c #452A0D",
"b  c #4C2C0C",
"n  c #502D07",
"m  c #512F0B",
"M  c #4F310F",
"N  c #54320D",
"B  c #59350E",
"V  c #553007",
"C  c #412612",
"Z  c #442C14",
"A  c #4B2D14",
"S  c #442E1B",
"D  c #4B2E1A",
"F  c #512F11",
"G  c #4D3114",
"H  c #46311B",
"J  c #4C331C",
"K  c #453017",
"L  c #533413",
"P  c #583612",
"I  c #563817",
"U  c #5C3815",
"Y  c #54361A",
"T  c #583718",
"R  c #553A1B",
"E  c #5B3C1C",
"W  c #613A0C",
"Q  c #643D15",
"!  c #693E13",
"~  c #643E19",
"^  c #4D3621",
"/  c #463728",
"(  c #5A3D23",
")  c #543921",
"_  c #433C33",
"`  c #483F39",
"'  c #5A401C",
"]  c #6D4216",
"[  c #64431C",
"{  c #6C451B",
"}  c #6F491D",
"|  c #70471E",
" . c #744B1E",
".. c #764A18",
"X. c #76501F",
"o. c #7A511C",
"O. c #5A4429",
"+. c #4C4134",
"@. c #44453A",
"#. c #4C463C",
"$. c #4C4C3D",
"%. c #46463A",
"&. c #534B3E",
"*. c #594937",
"=. c #54523F",
"-. c #654423",
";. c #6C4A23",
":. c #654A2A",
">. c #6B4A26",
",. c #724C22",
"<. c #794D23",
"1. c #68512F",
"2. c #765224",
"3. c #7D5124",
"4. c #73512C",
"5. c #7A552B",
"6. c #654C33",
"7. c #654E37",
"8. c #714F33",
"9. c #6C5134",
"0. c #6D553B",
"q. c #655039",
"w. c #725436",
"e. c #755830",
"r. c #7A593D",
"t. c #775835",
"y. c #4A4B41",
"u. c #544D44",
"i. c #594940",
"p. c #4D5142",
"a. c #555445",
"s. c #5A5444",
"d. c #545148",
"f. c #5C564B",
"g. c #5D5B4B",
"h. c #585A46",
"j. c #5E5750",
"k. c #5D5C51",
"l. c #555650",
"z. c #625B4D",
"x. c #66564C",
"c. c #755B45",
"v. c #775D45",
"b. c #625C52",
"n. c #695E52",
"m. c #5E6252",
"M. c #63614E",
"N. c #7D634C",
"B. c #656353",
"V. c #6A6455",
"C. c #6A6955",
"Z. c #66665B",
"A. c #6A665A",
"S. c #6C6B5D",
"D. c #666957",
"F. c #71675B",
"G. c #736B5C",
"H. c #796B5E",
"J. c #79665D",
"K. c #6E715C",
"L. c #71725D",
"P. c #78755E",
"I. c #6D6F61",
"U. c #736E64",
"Y. c #6F7262",
"T. c #747363",
"R. c #7B7364",
"E. c #777864",
"W. c #7B7A65",
"Q. c #77776B",
"!. c #7B776A",
"~. c #7B7B6B",
"^. c #777B69",
"/. c #80684E",
"(. c #817668",
"). c #837E73",
"_. c #7D806E",
"`. c #7E8073",
"'. c #848373",
"]. c #8B8475",
"[. c #8B8A76",
"{. c #878579",
"}. c #8B867B",
"|. c #8B8B7C",
" X c #878A77",
".X c #908673",
"XX c #918A7B",
"oX c #8C8C82",
"OX c #908F82",
"+X c #8F9181",
"@X c #939283",
"#X c #989788",
"$X c #9B9C8C",
"%X c #9B9785",
"&X c #9A9A90",
"*X c #A19E8A",
"=X c #A19B91",
"-X c #9FA293",
";X c #A7A898",
":X c #B0AB9A",
">X c #BCB6A5",
",X c None",
/* pixels */
",X,X,X,X,X,X,X,X,X,X,X~.@X:X>X$X#X;X$X,X,X,X,X,X,X,X,X,X,X,X",
",X,X,X,X,X,X,X,X,X@XT.W.[.(.W.T.C._._. X;X,X,X,X,X,X,X,X,X,X",
",X,X,X,X,X,X,X'.%X*X|.V.E.E.E.Y.D.m.m.*X~. X[.,X,X,X,X,X,X,X",
",X,X,X,X,X`.U.XX.XR.'.T.s.V.k.g.m.p.Y.'.T.Q.S.Y.,X,X,X,X,X,X",
",X,X,X,XT.-X|.g.!.R.I.U.x s @ 3 i h S.).U.U.B.+X-X,X,X,X,X,X",
",X,X,XS.+X`.T.k.k.g.h 3 + ; X , : > 9 +.f.A.[.^._.+X,X,X,X,X",
",X,X,X`.`.T.T.D.l > $ , i p 4 ^ K K y t 9 $.'.K.K.^.|.,X,X,X",
",X,X^.h.g.D.Z._ > 1 Z Y Y O.S -.[ { ' ' K 7 O.V.D.g.T.A.,X,X",
",X,X$X[.C.=.+.3 , Z ~ ~ >.1.J w.2.2.3.5.~ A r +.z.[.%XoX,X,X",
",XoX'.~.$X&.$ 4 p Y >.;.4.w.^ 4.2.2.2.5.9.O.S > &. X~.@X,X,X",
",X&X~.T.L.a > y J -.4.,.2.e.) ,.X.X.<.5.,.:.O.t i C.T.[.$X,X",
",XQ.S.V.s.$ e G Q | 3...,.5.Y ] ..o...<. .,.;./ > a.M.B.}.,X",
"oX~.g.$.g @ p O.~ { 3.,. .} ( ;.]  .,.<.| | ;.^ & g a.'.oXI.",
"oX'.@XA.0 0 +.0.9.9.9.r.w.q./ :.-.w.r.w.8.8.6.` w i {.+X`.Z.",
"oXT.~.f.0 k V.R.R.R.G.H.V.#.d u.&.n.J.J.(.R.G.g.g 0 ~.Q.Y.Z.",
"~.I.I.j.@ . #.a & * #.d @ O % a @ @ f ` & & a x . % {.I.I.j.",
"T.s.g.#.$ + , , , : 7 1 4 4 ; p , , 7 , : 1 : ; . & !.D.h.$.",
"!.~.T.$.w H I ~ [ Q ] Q U T C ~ W W ! ~ Q ~ U D 6 ; V.E.K.m.",
"=X].XXz.p E } ,.] ]  . . .;.D <. . . .,.! ,.;.T r 4 .X[. XQ.",
"}.U.G.=.y N [ >.[ ;.;.;.-.:.D ;.[ ;.;.;.;.-.-.Y 2 7 .XP.L.Z.",
"}.n.C.z.y L { ;.} { } } -.[ D ;.] } ,.;.} { -.T 8 , [.L.M.m.",
"F.i.z.#.t K E ! ] ] ] { { ~ A ] W ] ] ] ! ! ~ Y 7 , z.h.=.a.",
"|.}.|.d.` *.c.N././.v.w.7.7.f O.1.9.0.c.v.N.v.x./ d ~.|. XY.",
"@X~.!.l.z &.U.n.z.b.F.d._ z s u.l _ d.A.b.j.b.b.k s {.E.E.D.",
"@XE.G.f.& . x q X ; / 5 X @ O 5 + + d k # + w j   & ].R.G.g.",
"_.M.V.i.& + = - - - : - : 4 . = , : : = = : : + . & ).D.g.a.",
"K.z.B.` e 8 Z Z A A A c D S 6 Z K K v Z K Z v y , > z.M.h.p.",
"@X~.'.x.r v G I m N P P F J 2 G L N I L N N L v 7 e ).W.^.m.",
"~.u.f.i.r c N L n V B N N F 2 m B N N P N n N b < e T.g.h.y.",
"I.` y.` r c n Y m V P b m A 2 C N N v I N N L v < 4 U.l.y.x ",
"l.l x _ 6 8 b I F A F c A A 1 2 b b c L A Y Y v 1 4 k.x j j ",
"@.j x z 5 e r ^ S C C 2 Z y , , C Z 8 r C Z D r 6 5 x j j l "
};
