/* XPM */
static char *_673536249780[] = {
/* columns rows colors chars-per-pixel */
"32 32 214 2 ",
"   c #D58A1F",
".  c #D88A1F",
"X  c #DB921F",
"o  c #D58C22",
"O  c #D98D22",
"+  c #D69024",
"@  c #DC9323",
"#  c #DF9923",
"$  c #D5912D",
"%  c #DC962B",
"&  c #DC9B2D",
"*  c #C78E39",
"=  c #C98F38",
"-  c #CC933B",
";  c #DC9631",
":  c #DD9A32",
">  c #D39639",
",  c #D49A3E",
"<  c #DC9C39",
"1  c #E09623",
"2  c #E39C24",
"3  c #E29C2B",
"4  c #E29F34",
"5  c #E09F3B",
"6  c #DDA23D",
"7  c #E5A125",
"8  c #E9A525",
"9  c #ECAB26",
"0  c #E5A32A",
"q  c #E9A62D",
"w  c #E5A82F",
"e  c #ECAB2C",
"r  c #F1AE2D",
"t  c #EEB22E",
"y  c #F3B42C",
"u  c #F7B92E",
"i  c #F9BD2D",
"p  c #E4A233",
"a  c #E8A732",
"s  c #E6AC32",
"d  c #EBAD33",
"f  c #E2A33B",
"g  c #E5AD3D",
"h  c #E9AB3C",
"j  c #EDB233",
"k  c #E7B13E",
"l  c #ECB43C",
"z  c #EEBB3A",
"x  c #F3B432",
"c  c #F4BA34",
"v  c #F9BE33",
"b  c #F3BB3B",
"n  c #F8BF38",
"m  c #EFC23E",
"M  c #FBC335",
"N  c #F6C23E",
"B  c #FAC43A",
"V  c #FECB3B",
"C  c #CB9B44",
"Z  c #CB9741",
"A  c #D69D41",
"S  c #DC9E44",
"D  c #DAA243",
"F  c #DEAA45",
"G  c #DCA448",
"H  c #D3A94D",
"J  c #DBAF4F",
"K  c #DEAB52",
"L  c #DAA95B",
"P  c #DFB858",
"I  c #DEB357",
"U  c #E2AB43",
"Y  c #E8AF41",
"T  c #E2AB4C",
"R  c #E1A447",
"E  c #E7B241",
"W  c #EBB144",
"Q  c #E7BB42",
"!  c #EDBA42",
"~  c #E3B64A",
"^  c #E9B64A",
"/  c #E6B84B",
"(  c #ECBC4B",
")  c #F0B641",
"_  c #F3BC42",
"`  c #F2BE4A",
"'  c #E2AD53",
"]  c #E1AE5B",
"[  c #EAB556",
"{  c #EBBB55",
"}  c #E4B35B",
"|  c #E5B755",
" . c #F0BF5A",
".. c #DCAE63",
"X. c #EABD63",
"o. c #E3B76A",
"O. c #E3BD6C",
"+. c #EABD6C",
"@. c #E3B865",
"#. c #E4BF78",
"$. c #E4BF73",
"%. c #EFC846",
"&. c #ECC34C",
"*. c #EDCC4E",
"=. c #E6C24F",
"-. c #F6C344",
";. c #FAC542",
":. c #F5CB43",
">. c #FBC943",
",. c #F3C44B",
"<. c #F5CB4C",
"1. c #FCCC4B",
"2. c #FED445",
"3. c #FFD845",
"4. c #FDD34C",
"5. c #FCD949",
"6. c #EEC356",
"7. c #E9CA55",
"8. c #EEC35C",
"9. c #E7CD5E",
"0. c #F3C455",
"q. c #F9CC53",
"w. c #F2C45B",
"e. c #F9CF5E",
"r. c #F6CC56",
"t. c #ECD255",
"y. c #FDD353",
"u. c #FDDC52",
"i. c #FBD45C",
"p. c #FDDC5B",
"a. c #F3D656",
"s. c #EFC364",
"d. c #E6CD64",
"f. c #E4C768",
"g. c #E9C16C",
"h. c #EDCD6D",
"j. c #E3C462",
"k. c #F0C462",
"l. c #F3CC65",
"z. c #F8CE60",
"x. c #F0C76F",
"c. c #F4CC6F",
"v. c #E7D069",
"b. c #F4D265",
"n. c #FAD464",
"m. c #FDDA63",
"M. c #F3D16C",
"N. c #FAD66A",
"B. c #F7DB6D",
"V. c #FCDB6D",
"C. c #EECB74",
"Z. c #E6C37A",
"A. c #ECC67C",
"S. c #E9CA7B",
"D. c #F3CB71",
"F. c #F3CC78",
"G. c #EBD579",
"H. c #F6D374",
"J. c #F8D674",
"K. c #FCDB73",
"L. c #F3D47C",
"P. c #F9D77B",
"I. c #FADC7C",
"U. c #FFE168",
"Y. c #FEE37C",
"T. c #FFE979",
"R. c #FEE575",
"E. c #EAC682",
"W. c #EFCE89",
"Q. c #F2CD82",
"!. c #EDD585",
"~. c #F3D281",
"^. c #FBDD84",
"/. c #F4D58B",
"(. c #F3DD8B",
"). c #FADB8C",
"_. c #F7D985",
"`. c #EED190",
"'. c #EDD39C",
"]. c #F3D790",
"[. c #F4DA92",
"{. c #F8DB92",
"}. c #F3DB9D",
"|. c #F9DF9A",
" X c #FCE385",
".X c #FFEB84",
"XX c #FDE48D",
"oX c #FEEC8E",
"OX c #FBE493",
"+X c #FCEB93",
"@X c #F7E09A",
"#X c #FFE798",
"$X c #FBEA9B",
"%X c #FFF194",
"&X c #FEF09A",
"*X c #EFDEA2",
"=X c #F3DDA4",
"-X c #F6E1A2",
";X c #FAE4A3",
":X c #FEE9A3",
">X c #F5E2AB",
",X c #FCECAB",
"<X c #F5EAA9",
"1X c #F4E6B3",
"2X c #FDEDB4",
"3X c #FCECB9",
"4X c #FDF7B7",
"5X c #FEF4BB",
"6X c #FFF8BA",
"7X c #F7EFC0",
"8X c #FEF4C2",
"9X c #FDF5C9",
"0X c #FCF8CE",
"qX c None",
/* pixels */
"qXqXqXqXqXqXqXqXqXqXqXqX+XoX X(.Y.B.B.N.qXqXqXqXqXqXqXqXqXqXqXqX",
"qXqXqXqXqXqXqXqXqXqX+X(.G.v.9.7.7.=.=.&.<.<.qXqXqXqXqXqXqXqXqXqX",
"qXqXqXqXqXqXqXqX+X!.d.t.a.u.u.U.p.5.5.:.b j b q.qXqXqXqXqXqXqXqX",
"qXqXqXqXqXqX+X(.d.t.u.p..XV.4.U.e.>.4.2.B B x h l.).qXqXqXqXqXqX",
"qXqXqXqXqXXXG.*.u.T.m.4.B.r.V :.N M B c c >.q.c d A.-XqXqXqXqXqX",
"qXqXqXqX Xh.%.5.y.Y.b.V ;.;.1.q.1.>.B v y ,.w.x x g Z.}.qXqXqXqX",
"qXqXqXI.v.m p.V.;.;.N y.Y.oXoX.XY.U.i.>.c j d l {.D.p g.L.qXqXqX",
"qXqXqXl.z V i.b.N ;.Y.&X%X.X.X.XB.u.2.>.V u 8 h W.O.1 & 6.qXqXqX",
"qXqXN.Q B >.n c -. X%XoX$X$X,X4X2XXX>.M M M y 2 3 3 a : & -.qXqX",
"qXqX&.t >.q.b n I..XR.$X4X6X6X6X8X9Xi.i u y y e @ 3 ;.j o w qXqX",
"qXr.j y b z r N.R.U.n.<X6X6X8X8X8X7Xw.x ` l e 8 1 @ 3 @   + g qX",
"qX-.0 c x e ) V.u.2.y.4X8X8X8X5X2X;X( H. XJ.l.a 1 @ o @ @   : qX",
"qXl 0 N ;.q 0.4.>.V V ^.9X5X2X:X#XC.k.K.i.1.i.^ @ O @ 2 # . + qX",
"b.k 7 h h p q.V B i.l.( D.-X#X XI.{ n.2.B n n U @ o @ X @ X o , ",
"H.F 1 f 3 4 1.M J.3X2X|.C.| C.V.w.,.>.n x q a ' %   X 2 2 7 + , ",
").K f {.+.5 _ b -X:XXXY.K.n.( / / _ x q 3 3 % T <   # 0 # 0 # 6 ",
"=XL ; E.] < _ _ #XI.V.i.y.>.1.U F 6 U f ; ; f } < @ 2 9 7 9 8 F ",
"=X..O % O 3 l r H.m.2.>.B c k 6 f < , D K } @.T 7 2 9 u t i t ~ ",
"/.@.o [  .; h 8 ( 1.M x r E < 6 3 < T ' 6 f a 9 y e y B M M c ~ ",
"qXX.$ Y ) 3 f 2 Y 0.d q U S , R 5 T [ x.D.d y u v e M B z ;.z qX",
"qX6.+ 1 1 2 q 4 3 T ' T G $ K T [ X.D.P.OX` M M c z >.1.<.,.g qX",
"qX,.0 2 9 e 7 a O O $ $ O < g.s.D.P. X XOX,.V V Q q._ ` K.( 6 qX",
"qXqXw 7 e 8 8 r 3 @ O @ 1 h ).^.XXXXOXOXH.>.3.=.b.N.f T L.6 qXqX",
"qXqXk # 9 9 y e u 3 1 2 9 e w.).{.P.b.e.5.5.=.C.P.L././.} > qXqX",
"qXqXqX: 8 M 0 + e B j e y v M ;.<.2.3.5.*.j.(.{.5 ' ,XW.> qXqXqX",
"qXqXqXqX% t c w -.;.1.,.( z N :.:.<.7.f.!.{.@X@Xo.E.*XG qXqXqXqX",
"qXqXqXqX, & z y.q.N -.V.V.H.L.~.!.[.}.-X3X+.6 >X9X*XK C qXqXqXqX",
"qXqXqXqXqX, 6 0.K.b.D.^._ w.;X~.Q.2XA.' =X].Z.1X=XK C qXqXqXqXqX",
"qXqXqXqXqXqXqX! 0._.:X;XX.A.>XG S 1XE.K 1X0X>XS.K qXqXqXqXqXqXqX",
"qXqXqXqXqXqXqXqX/ ( s./.=X8X9X'.'.9X7X1X*XS.P H qXqXqXqXqXqXqXqX",
"qXqXqXqXqXqXqXqXqXqXF 6 R ] o.#.Z.$.o.P J H qXqXqXqXqXqXqXqXqXqX",
"qXqXqXqXqXqXqXqXqXqXqXqXqX= * - - C C qXqXqXqXqXqXqXqXqXqXqXqXqX"
};
