/* XPM */
static char *_673536270950[] = {
/* columns rows colors chars-per-pixel */
"32 32 102 2 ",
"   c #000000",
".  c #0A0603",
"X  c #0F0904",
"o  c #140C05",
"O  c #190F06",
"+  c #171207",
"@  c #1A1207",
"#  c #1E1309",
"$  c #1D180D",
"%  c #241609",
"&  c #2A1608",
"*  c #25190D",
"=  c #291C0C",
"-  c #341F0E",
";  c #291D10",
":  c #2D220D",
">  c #34230E",
",  c #3C230E",
"<  c #2C2415",
"1  c #332512",
"2  c #382611",
"3  c #372916",
"4  c #3A2913",
"5  c #3B2D19",
"6  c #3F321A",
"7  c #272C2F",
"8  c #282C2F",
"9  c #2F302F",
"0  c #31312E",
"q  c #42260F",
"w  c #442A12",
"e  c #4B2C12",
"r  c #512F13",
"t  c #433214",
"y  c #483516",
"u  c #40331A",
"i  c #563113",
"p  c #593314",
"a  c #533418",
"s  c #523D18",
"d  c #5B391A",
"f  c #643917",
"g  c #643D1B",
"h  c #6C3D18",
"j  c #55401A",
"k  c #5B441C",
"l  c #67411E",
"z  c #6A421F",
"x  c #674E1F",
"c  c #74431A",
"v  c #7A451C",
"b  c #7E481C",
"n  c #5C4E30",
"m  c #6D4420",
"M  c #694F20",
"N  c #724721",
"B  c #7B4D24",
"V  c #6B5120",
"C  c #725623",
"Z  c #765924",
"A  c #7A5C25",
"S  c #72613B",
"D  c #81491D",
"F  c #845227",
"G  c #8E5120",
"H  c #8C5829",
"J  c #9A5823",
"K  c #945C2B",
"L  c #826227",
"P  c #886629",
"I  c #8D6A2B",
"U  c #9C622D",
"Y  c #906C2B",
"T  c #96712D",
"R  c #A2652F",
"E  c #AD6C32",
"W  c #A37B31",
"Q  c #AA7F33",
"!  c #BC7537",
"~  c #907A4A",
"^  c #AA8033",
"/  c #B68937",
"(  c #B88A37",
")  c #BB8C38",
"_  c #BF903A",
"`  c #C1913A",
"'  c #CE9B3E",
"]  c #D09D3F",
"[  c #A48B55",
"{  c #BDA061",
"}  c #D49F40",
"|  c #D6A141",
" . c #DBA442",
".. c #E4AC45",
"X. c #E8AF46",
"o. c #ECB147",
"O. c #EEB348",
"+. c #F1B549",
"@. c #F7BA4B",
"#. c #FABC4B",
"$. c #C0A263",
"%. c None",
/* pixels */
"%.%.%.%.%.%.%.%.%.%.%.%.%.%.%.%.%.%.%.%.%.%.%.%.%.%.%.%.%.%.%.%.",
"%.%.%.%.%.%.%.%.%.%.%.%.%.  . . . .   %.%.%.%.%.%.%.%.%.%.%.%.%.",
"%.%.%.%.%.%.%.%.. o & , i g b q a U B g y - # . %.%.%.%.%.%.%.%.",
"%.%.%.%.%.%.o w c b b v h p D p m R N F H U U H d o %.%.%.%.%.%.",
"%.%.%.%.%.% c f > > 2 y k : i i m l 1 k y 4 2 w B K = %.%.%.%.%.",
"%.%.%.%.# b q t ^ | ..+.#.A i i m l A #.+...| W y a K * %.%.%.%.",
"%.%.%.  f e s ..#.#.#.#.#.A i i l m Z #.#.#. .V ) s g B . %.%.%.",
"%.%.%.% b > ] #.#.#.^ T #.A i i m g Z #.#.@.+.Z s ` 2 K * %.%.%.",
"%.%.%.q f k #.#.@.^ 1 ^ #.A i i m z A #.@.#.#.X.t Q l B y %.%.%.",
"%.%.%.i i Z #.#.] w T | #.A i p z m A #.@.#.#.#.Z A Z z z %.%.%.",
"%.%.  p i A #.#.o._ k A #.A i i z z A #.@.#.@.#.L V A z z   %.%.",
"%.%.  i i A #.#.@.A k ..#.A i i m g Z #.@.@.@.#.` ) A z z   %.%.",
"%.%.  i i A #.#.@.| ..#.#.A i i z z Z #.@.@.#.#.) ) A l z   %.%.",
"%.%.  p i A o.X.@.#.@.#.#.A i i z z A #.#.@.@.#./ ) A z m   %.%.",
"%.%.  i i A I P #.#.@.#.#.A p p m m A #.@.#.#.@.#.#.A z z   %.%.",
"%.%.  i r A A A #.#.#.@.#.A = & - - A #.@.#.@.#.#.#.A z z   %.%.",
"%.%.  p a A A M ..+.@.#.#.A 0 0 7 7 A #.@.#.@.#.@.#.A m m   %.%.",
"%.%.  i p A I : j ..#.#.#.A 9 0 7 7 A #.#.#.#.#.#.#.Z g m   %.%.",
"%.%.  i i M ' ( ) } |  . .C & & 1 - V  . . . .}  . .M z m   %.%.",
"%.%.  p p $ 6 6 6 6 6 6 6 $ p i m m * u u 5 u u u 6 $ m z   %.%.",
"%.%.  i i n { { { { { { { n i i g m n $.{ { $.{ { { n z z   %.%.",
"%.%.  i f = 3 3 2 3 3 3 3 * f i m B ; 5 5 5 5 5 5 5 = B m   %.%.",
"%.%.  i J b b b b b D b b b J i g ! U U U U K U U U U ! z   %.%.",
"%.%.  p f % > > 2 % O 1 * o f i m B o ; 3 # = w 4 4 * B z   %.%.",
"%.%.  i i V  . .W : S [ < + p i m l + < [ S : W  . .M z z   %.%.",
"%.%.  p i A #.^ 3 ~ [ 5 I C i i l m C T 5 [ ~ 3 ^ #.A z z   %.%.",
"%.%.  i i C Y 6 [ ~ 3 ^ #.A a i m l A #.^ 3 ~ [ 5 I C z z   %.%.",
"%.%.  i i + < [ S : W  . .V i i z l M  .| W = S [ < + z z   %.%.",
"%.%.  p f o * 1 O % , > > = f i z B = 2 2 4 * # 3 ; O B z   %.%.",
"%.%.  e G D b b D D D D D D D e d E U U U U U R U U U E d   %.%.",
"%.%.%.X O + + O O O + O O O + X X # # # % # # # % # # # o %.%.%.",
"%.%.%.%.%.%.%.%.%.%.%.%.%.%.%.%.%.%.%.%.%.%.%.%.%.%.%.%.%.%.%.%."
};
