/* XPM */
static char *_673536283157[] = {
/* columns rows colors chars-per-pixel */
"32 32 202 2 ",
"   c #2C370D",
".  c #2D380E",
"X  c #313C11",
"o  c #323D13",
"O  c #333E13",
"+  c #333E14",
"@  c #343F14",
"#  c #344012",
"$  c #364214",
"%  c #354016",
"&  c #364116",
"*  c #364117",
"=  c #374217",
"-  c #3A4314",
";  c #3B4717",
":  c #3C4516",
">  c #384318",
",  c #384319",
"<  c #394419",
"1  c #3A4618",
"2  c #3B4719",
"3  c #39441A",
"4  c #3A451A",
"5  c #3B461B",
"6  c #3E4718",
"7  c #3C471C",
"8  c #3D4919",
"9  c #3F4819",
"0  c #3C481A",
"q  c #3D491B",
"w  c #3E4A1A",
"e  c #3F4B1B",
"r  c #3D481D",
"t  c #3F4B1D",
"y  c #3E491E",
"u  c #3E491F",
"i  c #3F4A1F",
"p  c #40491A",
"a  c #414A1B",
"s  c #424B1C",
"d  c #414D1D",
"f  c #434C1D",
"g  c #404C1E",
"h  c #414D1F",
"j  c #424E1E",
"k  c #434F1F",
"l  c #444D1E",
"z  c #454E1F",
"x  c #44501E",
"c  c #45511F",
"v  c #404B20",
"b  c #414C21",
"n  c #424E20",
"m  c #434F21",
"M  c #424D22",
"N  c #434E23",
"B  c #454E21",
"V  c #464F20",
"C  c #434E24",
"Z  c #444F24",
"A  c #445020",
"S  c #455121",
"D  c #475021",
"F  c #465220",
"G  c #475321",
"H  c #445022",
"J  c #455123",
"K  c #475023",
"L  c #465222",
"P  c #475323",
"I  c #455025",
"U  c #465224",
"Y  c #475325",
"T  c #455026",
"R  c #465126",
"E  c #475227",
"W  c #485122",
"Q  c #495223",
"!  c #485422",
"~  c #495523",
"^  c #4A5324",
"/  c #485424",
"(  c #495525",
")  c #4B5425",
"_  c #4A5624",
"`  c #4B5725",
"'  c #485426",
"]  c #495527",
"[  c #4A5626",
"{  c #4B5727",
"}  c #4C5526",
"|  c #4D5627",
" . c #4C5826",
".. c #4D5927",
"X. c #485328",
"o. c #495429",
"O. c #4A5628",
"+. c #4B5729",
"@. c #4A552A",
"#. c #4B562B",
"$. c #4E5728",
"%. c #4C572C",
"&. c #4C5828",
"*. c #4D5929",
"=. c #4F5829",
"-. c #4E5A28",
";. c #4F5B29",
":. c #4C582A",
">. c #4D592B",
",. c #4E5A2A",
"<. c #4F5B2B",
"1. c #4D582D",
"2. c #4E5A2C",
"3. c #4F5B2D",
"4. c #4E592E",
"5. c #4F5A2F",
"6. c #50592A",
"7. c #515A2B",
"8. c #505C2A",
"9. c #515D2B",
"0. c #525B2C",
"q. c #505C2C",
"w. c #515D2D",
"e. c #535C2D",
"r. c #525E2C",
"t. c #535F2D",
"y. c #505C2E",
"u. c #515D2F",
"i. c #525E2E",
"p. c #535F2F",
"a. c #545D2E",
"s. c #555E2F",
"d. c #525E30",
"f. c #535F31",
"g. c #515C32",
"h. c #535E33",
"j. c #565F30",
"k. c #545F34",
"l. c #54602E",
"z. c #55612F",
"x. c #56632E",
"c. c #57642F",
"v. c #546030",
"b. c #556131",
"n. c #576031",
"m. c #566230",
"M. c #576331",
"N. c #556133",
"B. c #566232",
"V. c #576333",
"C. c #556035",
"Z. c #566234",
"A. c #566136",
"S. c #586132",
"D. c #596233",
"F. c #586530",
"G. c #596631",
"H. c #586432",
"J. c #596533",
"K. c #5A6732",
"L. c #5A6334",
"P. c #586434",
"I. c #5B6435",
"U. c #5A6634",
"Y. c #5B6735",
"T. c #586436",
"R. c #596537",
"E. c #5A6636",
"W. c #5B6737",
"Q. c #5D6735",
"!. c #5C6536",
"~. c #5D6637",
"^. c #5B6833",
"/. c #5C6934",
"(. c #5C6836",
"). c #5D6937",
"_. c #576238",
"`. c #5A6638",
"'. c #5B663B",
"]. c #5E6738",
"[. c #5F6839",
"{. c #5E6A38",
"}. c #5F6B39",
"|. c #5D693B",
" X c #5D683D",
".X c #5E6A3C",
"XX c #5F6B3D",
"oX c #5F6A3F",
"OX c #60693A",
"+X c #616A3B",
"@X c #626B3C",
"#X c #636C3D",
"$X c #616D3F",
"%X c #656E3F",
"&X c #606B40",
"*X c #666F40",
"=X c #677041",
"-X c #687142",
";X c #6A7344",
":X c #6B7445",
">X c #6D7647",
",X c #6E7748",
/* pixels */
"^ W ^ W z | j.e.n.| 0.=.6.a.=.j.e.Q ) 6.} ) e.n.} n.n.0.e.7.$.0.",
"^ W ^ Q V $.n.s.D.6.a.0.a.S.e.I.#Xj.e.s.| ^ =.7.$.S.D.a.n.n.n.!.",
"^ W ) ^ D 6.L.n.L.7.j.a.j.I.j.~.@Xa.0.a.$.) 6.0.$.S.S.e.j.S.S.[.",
"^ W } ) Q 0.!.L.D.6.a.0.a.S.e.L.I.| ) 6.| ) =.$.^ s.s.6.0.0.0.n.",
"^ Q } } ^ e.~.I.D.6.a.7.e.j.7.S.+X7.| 6.} W W l V 0.a.6.0.7.=.a.",
") Q } } ^ e.~.I.L.6.s.0.e.n.0.D.*Xa.| 6.| ) ^ V V 0.a.0.s.s.a.D.",
") Q } } Q 0.!.L.n.$.e.0.a.D.a.!.%X=.z W Q } =.| ^ a.a.=.0.a.j.!.",
") Q } } Q 0.I.D.e.) 6.6.e.D.s.~.*X| 9 p a z } ) $.j.0.^ } $.7.D.",
"=.| $.} Q 0.!.L.7.6.7.^ e.~.S.@X=X} 9 s V ^ $.} | a.6.Q | 7.0.n.",
"$.} $.} Q 0.I.D.0.$.6.} a.L.n.-X,Xs.Q } $.6.e.6.=.j.e.| 0.j.S.~.",
"| ) $.| ^ 0.I.S.6.W ^ Q $.=.6.;X:Xn.| =.$.=.6.} ^ 7.=.) 6.e.j.~.",
"} ) =.$.) e.I.n.7.V D D Q V ^ :X#Xa.$.6.} } } D V | ) W } $.0.I.",
"} ) =.$.) 0.L.n.n.Q Q W Q l Q >X@XS.j.j.7.6.7.} Q =.| ) $.$.0.~.",
") Q } ) W 6.D.j.a.D V f l a D -X+XI.!.I.e.0.e.=.W $.| ) $.} 7.].",
"Q V W D l } j.a.| s p : 6 a V #X[.!.].I.6.$.6.) l Q Q Q } ^ =.].",
"K l B f p Q e.0.) s p - 9 z Q #XOXQ.[.I.$.) | Q s W W ^ | ) 7.@X",
"M t r 0 t J :.y.&.L w d ! F ` (.U.c.U.J.;. .` F ; P j 8 [ q.d.XX",
"> > > < q J 3.Z.*.( k A ~ G ..{.K.x.G.F.-.` _ x e ,.[ j ( &.3.XX",
"4 5 7 5 0 h O.d.&.,.{ ( ` ~ -.}.^.c.G.c..._ _ x L V.p./ ] ' :.|.",
"5 v N M t t J +.( w.q.&. .~ ;.)./.c.G.c..._ _ x { W.B.( ] Y O.`.",
"& r Z I n h m Y S w.p.*.` ~ -.J.(.H.J.M..._ { L *.E.f.' +.] O.T.",
"< i I R h q 1 1 d q.p.&.` ` ..l.Y.m.H.z. ._ { P { P.d.Y +.+.:.R.",
"b N I Z g 1 $ # w <.i.{  .-.-.9.H.t.z.t.[ / [ L ] R.N.] +.] >.|.",
"b b M M h t q 2 8 <.i.{ ..8.;.;.z.9.r.8./ P ( S Y `.R.:.O.Y >.$X",
"N M b v J O.' n { p.i.*. .~ ` z.p.p.i.{ S &.3.H ] f.u.Y N Z 4. X",
"N N M M J ] ' H / q.q.{ _ G ~ t.v.v.b.*.S ( :.m J y.3.H v N 5.&X",
"N I I Z J ] O.' [ i.w.*...~ _ t.q.w.v.,.J ' +.H H u.4.v 4 y 1.oX",
"N R E I J ] +.+.&.v.i.,...~ ! 8.[ { w.,.J ' :.Y ] N.4.4 X = X.'.",
"N E X.I J ] >.>.&.i.<.[ ~ c x ` [ [ 2.>.J Y O.J %.A.%.@   + T _.",
"I R R Z U +.2.>.q.v.q.[ ` ! G -.p.,.3.>.U J Y h o.k.@.O . % C g.",
"R R N M U :.2.:.p.V.i.*.8.;.8.M.W.d.3.2.] ' ' g E h.#.= o , u T ",
"E I M b U >.2.+.w.b.<.{ ;.8.r.Y..Xd.2.3.:.:.:.H X.C.4.5 * 3 , 3 "
};
