/* XPM */
static char *_675438150367[] = {
/* columns rows colors chars-per-pixel */
"30 32 192 2 ",
"   c #010001",
".  c #0B0502",
"X  c #0E0805",
"o  c #080709",
"O  c #0D0D0B",
"+  c #110502",
"@  c #130C07",
"#  c #1A0B06",
"$  c #150D0A",
"%  c #1A0E0A",
"&  c #15110B",
"*  c #1C130B",
"=  c #1C1511",
"-  c #1E1D1B",
";  c #1B1916",
":  c #2B1606",
">  c #25150C",
",  c #2A160B",
"<  c #24190E",
"1  c #2D1B0C",
"2  c #231307",
"3  c #331E0E",
"4  c #3B1E06",
"5  c #211715",
"6  c #241C13",
"7  c #2D1E13",
"8  c #2A1C19",
"9  c #331F10",
"0  c #31220F",
"q  c #3D210B",
"w  c #2E2313",
"e  c #24211A",
"r  c #2D2419",
"t  c #2E281F",
"y  c #342313",
"u  c #3A2413",
"i  c #362915",
"p  c #3D2916",
"a  c #34271A",
"s  c #342B1F",
"d  c #3A2A1C",
"f  c #39301D",
"g  c #242523",
"h  c #272824",
"j  c #2D2D29",
"k  c #2B2A22",
"l  c #352A23",
"z  c #3C2D22",
"x  c #3C2D29",
"c  c #332E2A",
"v  c #353324",
"b  c #3D3225",
"n  c #363827",
"m  c #33332B",
"M  c #3C322C",
"N  c #3B3B2F",
"B  c #2F3235",
"V  c #353433",
"C  c #3F3233",
"Z  c #3B3B34",
"A  c #3D3D3B",
"S  c #411D04",
"D  c #442507",
"F  c #4E2704",
"G  c #44260B",
"H  c #45290D",
"J  c #4B2A0D",
"K  c #562D04",
"L  c #4F300C",
"P  c #543106",
"I  c #50340E",
"U  c #432611",
"Y  c #442A13",
"T  c #4A2D13",
"R  c #422E1A",
"E  c #47331A",
"W  c #4A341C",
"Q  c #523313",
"!  c #5C3717",
"~  c #55381C",
"^  c #5F3F1A",
"/  c #53361E",
"(  c #603A1C",
")  c #403325",
"_  c #4C3320",
"`  c #4E3921",
"'  c #43392C",
"]  c #4B3C2D",
"[  c #44352D",
"{  c #513D25",
"}  c #423733",
"|  c #403937",
" . c #4A3E35",
".. c #5D421E",
"X. c #61411B",
"o. c #57422D",
"O. c #464735",
"+. c #4C4231",
"@. c #43423A",
"#. c #4A453A",
"$. c #47493D",
"%. c #4F4C3F",
"&. c #544636",
"*. c #564A37",
"=. c #534C3D",
"-. c #54443C",
";. c #54513F",
":. c #424644",
">. c #4B4A44",
",. c #534B43",
"<. c #4F5048",
"1. c #535445",
"2. c #5A5445",
"3. c #5D5A47",
"4. c #54544A",
"5. c #59564A",
"6. c #5C5B4D",
"7. c #5C5D53",
"8. c #5C5C59",
"9. c #5D5351",
"0. c #615744",
"q. c #605945",
"w. c #605E4C",
"e. c #685E4A",
"r. c #63564A",
"t. c #625C52",
"y. c #5E604C",
"u. c #5F6058",
"i. c #65614F",
"p. c #6D644F",
"a. c #636353",
"s. c #6B6655",
"d. c #6A6A56",
"f. c #64655B",
"g. c #68645B",
"h. c #65685A",
"j. c #6B6B5C",
"k. c #726753",
"l. c #716E5D",
"z. c #6F735D",
"x. c #71735E",
"c. c #78795F",
"v. c #666660",
"b. c #6C6E63",
"n. c #696C69",
"m. c #726C61",
"M. c #6F7062",
"N. c #747363",
"B. c #7A7665",
"V. c #767964",
"C. c #7A7B66",
"Z. c #747768",
"A. c #767968",
"S. c #7C7B6C",
"D. c #79766B",
"F. c #757672",
"G. c #7C7E72",
"H. c #757C73",
"J. c #817467",
"K. c #817A67",
"L. c #867D6A",
"P. c #807A70",
"I. c #817F7C",
"U. c #7D816D",
"Y. c #7F8271",
"T. c #84836C",
"R. c #848374",
"E. c #8B8574",
"W. c #868A72",
"Q. c #8B8A75",
"!. c #83847B",
"~. c #868979",
"^. c #8B8C7C",
"/. c #8D847E",
"(. c #908671",
"). c #908E7B",
"_. c #8E927B",
"`. c #8C8E81",
"'. c #8E9182",
"]. c #939384",
"[. c #97978D",
"{. c #9B9689",
"}. c #979C8A",
"|. c #9B9B8D",
" X c #949992",
".X c #A49F93",
"XX c #A1A68E",
"oX c #A7A69B",
"OX c #AEA99A",
"+X c #A0A293",
"@X c #BBB5A6",
"#X c None",
/* pixels */
"#X#X#X#X#X#X#X#X#X#X#XD.{.OX@X{.]..X{.#X#X#X#X#X#X#X#X#X#X#X",
"#X#X#X#X#X#X#X#X#X[.N.S.^.B.S.N.k.G.S./.oX#X#X#X#X#X#X#X#X#X",
"#X#X#X#X#X#X#X!.[.|.^.g.N.B.D.m.j.t.a..XP.R.Q.#X#X#X#X#X#X#X",
"#X#X#X#X#X!.N.Q.E.N.R.Z.2.a.6.6.5.=.N.R.Z.B.h.M.#X#X#X#X#X#X",
"#X#X#X#XZ.+X^.3.Z.m.j.j.m e O O - k g.T.l.l.i.].|.#X#X#X#X#X",
"#X#X#Xj.^.U.N.a.3.3.v $ . o       . & N 2.s.Q.C.U.'.#X#X#X#X",
"#X#X#XY.R.x.x.s.+.s &                 . 6 *.K.z.z.A.~.#X#X#X",
"#X#XH.4.3.s.s.] u i @   o             . < 0 o.p.a.y.N.h.#X#X",
"#XU.}.^.j.;.+.3 q u #               . . > 9 U &.3.Q.].'.#X#X",
"#X_.U.A.{.,.f 1 y y $                 . > 9 9 ) 2.W.A.'.#X#X",
"#XXXC.N.m.' z r d l @                 o 5 l a ) ' s.x.R.|.#X",
"#XN.j.v.9.M ' m 8 $ .                   + 5 ) [ x 2.w.i.~.#X",
"`.Y.7.,.C 8 x #.% > .                   $ $ -.l 7 b 2.W._.f.",
"`.Y.].l.8 # > > u u .                 . 5 9 3 , % a (.^.Y.f.",
"W.z.c.0.y R E 3 Y u +                 . , u Y _ R y T.N.Z.v.",
"Y.h.z.0.R / J D H u + .               . : G J Q W E E.j.b.8.",
"z.5.3.&.W ( K 4 G q . .               . : D F K ! W J.d.5.>.",
"U.C.B.*.` ..K 4 p a .                 . < Y J P X./ k.C.z.y.",
"XXT.Q.0._ ..Q 3 d l X                 . 5 y Y I ..` (.(.W.V.",
"~.j.s.2.d _ E z s e o                   = r z W W p ^.N.z.h.",
"~.y.j.t.x x ] } & X .                 . o $  .] ) x /.m.h.u.",
"f.1.t.>.} 5 8 z % % .                 . + # x 5 5 | g.5.1.4.",
"^.Q.^.4.j & # # , < .                 . % 5 + $ & c S.).Q.j.",
"_.B.B.4.< w u : 1 < .               . . # , , u y 6 Q.V.V.h.",
"].Z.j.4.9 Y D : 3 , + .               . % , : H H y T.A.b.7.",
"G.a.a.,.9 Y G : 9 > . .     o         . % 3 : G H i L.s.7.<.",
"M.y.a.+.u J H 3 y 6 X o o O O O O O o . % 1 1 U T u e.a.7.<.",
"].S.P.r.i T H w 6 * = - g j m V B B g ; * * 7 T T p L.S.D.u.",
"A.;.2.,.d p y 6 e j A >.8.n.F.G.F.n.8.>.Z k 7 0 p i B.w.4.>.",
"b.O.#.@.5 6 e m >.8.F.#X#X#X#X#X#X#X#X#XF.v.>.[ d z m.4.>.A ",
"6.n N Z - h @.f.!.#X#X#X#X#X#X#X#X#X#X#X#X#XY.h.4.$.7.Z V V ",
"@.v A A B :.n.#X#X#X#X#X#X#X#X#X#X#X#X#X#X#X#X XH.u.:.V V V "
};
