/* XPM */
static char *_673718754728[] = {
/* columns rows colors chars-per-pixel */
"32 32 148 2 ",
"   c #140025",
".  c #1B0127",
"X  c #1D0328",
"o  c #230527",
"O  c #220629",
"+  c #25092A",
"@  c #2A0C2C",
"#  c #310F29",
"$  c #2D102E",
"%  c #3D1527",
"&  c #34112A",
"*  c #3C152C",
"=  c #2F0F30",
"-  c #2E1831",
";  c #341233",
":  c #3B1634",
">  c #3D1B35",
",  c #3A1638",
"<  c #372339",
"1  c #441C2B",
"2  c #411A30",
"3  c #451E38",
"4  c #57262C",
"5  c #58272C",
"6  c #402033",
"7  c #4E2133",
"8  c #4A2A37",
"9  c #47203C",
"0  c #402B3C",
"q  c #562432",
"w  c #592733",
"e  c #562E34",
"r  c #5F2C37",
"t  c #50283F",
"y  c #45313F",
"u  c #56333B",
"i  c #5A3638",
"p  c #5C383D",
"a  c #612B36",
"s  c #652E39",
"d  c #633239",
"f  c #6C333A",
"g  c #613C3E",
"h  c #7F3937",
"j  c #72373B",
"k  c #773A3D",
"l  c #7D3E3E",
"z  c #492D40",
"x  c #4D3A43",
"c  c #523D43",
"v  c #68394A",
"b  c #703F4D",
"n  c #694341",
"m  c #744944",
"M  c #7A434E",
"N  c #7E4C56",
"B  c #823B37",
"V  c #823C38",
"C  c #84433F",
"Z  c #8B423A",
"A  c #97473A",
"S  c #864340",
"D  c #914B47",
"F  c #824B56",
"G  c #854E58",
"H  c #8D545B",
"J  c #915B5E",
"K  c #A55446",
"L  c #A95442",
"P  c #AA5948",
"I  c #B25D49",
"U  c #8B614C",
"Y  c #9B6D51",
"T  c #B6604E",
"R  c #BA624B",
"E  c #BA695A",
"W  c #AD7C57",
"Q  c #A6705E",
"!  c #AC7C58",
"~  c #BD7152",
"^  c #854668",
"/  c #935366",
"(  c #955960",
")  c #94526A",
"_  c #AA6765",
"`  c #A36865",
"'  c #A96867",
"]  c #A96768",
"[  c #AC6969",
"{  c #B16E6B",
"}  c #B1637E",
"|  c #C56A4E",
" . c #C96C4E",
".. c #D37251",
"X. c #D87552",
"o. c #DD7B54",
"O. c #E47D55",
"+. c #E87F56",
"@. c #C47466",
"#. c #CB7664",
"$. c #C27A73",
"%. c #CB7E76",
"&. c #C8747C",
"*. c #E17F64",
"=. c #B28158",
"-. c #B9865B",
";. c #D38157",
":. c #DA8C5C",
">. c #EB8156",
",. c #EA8759",
"<. c #EA8B5B",
"1. c #F08357",
"2. c #F38558",
"3. c #EA935E",
"4. c #F1925E",
"5. c #D39B63",
"6. c #CD837E",
"7. c #D4877B",
"8. c #D08979",
"9. c #DA8B7C",
"0. c #D99075",
"q. c #DF9D75",
"w. c #DE937A",
"e. c #E18362",
"r. c #E28963",
"t. c #E79866",
"y. c #EA9D62",
"u. c #F19D61",
"i. c #E38775",
"p. c #E18D7C",
"a. c #E19C76",
"s. c #E19679",
"d. c #D6A165",
"f. c #DBA366",
"g. c #EAA164",
"h. c #E4A26C",
"j. c #E6AA6C",
"k. c #EAAD6A",
"l. c #F1A465",
"z. c #F1AC69",
"x. c #EAB16B",
"c. c #F1B56D",
"v. c #F5BA6F",
"b. c #E4A571",
"n. c #C17185",
"m. c #C97C80",
"M. c #DA8383",
"N. c None",
/* pixels */
"N.N.N.N.N.N.N.N.N.X X . . . . . X . X X . N.N.N.N.N.N.N.N.N.N.N.",
"N.N.N.N.N.N.N.N.2 c v p g g d a r r a i a 3 N.N.N.N.N.N.N.N.N.N.",
"N.N.N.N.N.N.N.X u -.d.5.d.5.;.X.......X.| f + N.N.N.N.N.N.N.N.N.",
"N.N.N.N.N.N.: n Y f.v.c.c.x.l.4.u.4.2.2.+.P j * N.N.N.N.N.N.N.N.",
"N.N.N.N.N.  6 W x.x.x.x.x.x.x.k.k.g.,.>.>.>.| r @ N.N.N.N.N.N.N.",
"N.N.N.N.N.  6 =.v.x.x.k.x.k.x.x.x.k.g.<.>.1.O.I l : N.N.N.N.N.N.",
"N.N.N.N.N.  6 =.c.x.x.x.k.x.x.x.x.x.k.y.,.,.>.>.I *   N.N.N.N.N.",
"N.N.N.N.N.  < =.c.x.x.k.x.x.x.k.x.x.x.k.g.<.>.2.I 2   N.N.N.N.N.",
"N.N.N.N.N.  3 Q q.q.b.k.x.x.k.x.x.x.x.x.k.3.>.1.I 2   N.N.N.N.N.",
"N.N.N.N.N.  , / n.n.8.j.x.x.x.x.x.x.x.x.k.3.>.1.I 2   N.N.N.N.N.",
"N.N.N.N.N.  , ) } ^ ` f.c.k.x.x.h.b.k.x.k.3.>.1.I 1   N.N.N.N.N.",
"N.N.N.N.N.  3 [ ] z m f.c.x.x.j.s.a.k.x.k.3.>.1.I :   N.N.N.N.N.",
"N.N.N.N.N.. > [ ] ; d :.z.k.x.j.w.s.k.x.k.3.>.1.I 2   N.N.N.N.N.",
"N.N.N.N.N.  2 [ { z k o.u.k.x.b.9.w.k.x.z.3.>.>.I >   N.N.N.N.N.",
"N.N.N.N.N.  > [ 7.] E +.y.k.x.b.%.6.b.c.k.3.>.1.I 2   N.N.N.N.N.",
"N.N.N.N.N.N.> H &.9.i.*.t.x.x.h.&.6.j.x.k.3.>.2.I :   N.N.N.N.N.",
"N.N.N.N.N.N.N.> v %.M.&.0.x.x.g.e.r.k.x.k.3.>.2.I 1   N.N.N.N.N.",
"N.N.N.N.N.N.N.N.9 H / ^ ( ! f.z.y.g.c.k.y.4.O.R C : N.N.N.N.N.N.",
"N.N.N.N.N.N.N.N.N.; ; ; - 8 W k.g.k.k.t.,.>. .s # N.N.N.N.N.N.N.",
"N.N.N.N.N.N.N.N.N.N.  X & w m U U U U ~ O.R C : N.N.N.N.N.N.N.N.",
"N.N.N.N.N.N.N.N.N.N.N.+ a Z 4 @ @ + @ S  .k @ N.N.N.N.N.N.N.N.N.",
"N.N.N.N.N.N.N.N.N.N.N.@ a A h q @ o % 5 f 7 N.N.N.N.N.N.N.N.N.N.",
"N.N.N.N.N.N.N.N.N.N.N.+ f K L V * # 5 1 + N.N.N.N.N.N.N.N.N.N.N.",
"N.N.N.N.N.N.N.N.N.N.N.@ M @.T V & # 5 1 X N.N.N.N.N.N.N.N.N.N.N.",
"N.N.N.N.N.N.N.N.N.N.N.@ G 7.#.D > & e 6 + N.N.N.N.N.N.N.N.N.N.N.",
"N.N.N.N.N.N.N.N.N.N.N.@ F 9.9.' 3 - c < + N.N.N.N.N.N.N.N.N.N.N.",
"N.N.N.N.N.N.N.N.N.N.N.@ v H ( N z < 0 < O N.N.N.N.N.N.N.N.N.N.N.",
"N.N.N.N.N.N.N.N.N.N.N.N.= & = > x z $ O N.N.N.N.N.N.N.N.N.N.N.N.",
"N.N.N.N.N.N.N.N.N.N.N.N.& % % 1 i 8 + . N.N.N.N.N.N.N.N.N.N.N.N.",
"N.N.N.N.N.N.N.N.N.N.N.O % 5 5 5 5 1 @ N.N.N.N.N.N.N.N.N.N.N.N.N.",
"N.N.N.N.N.N.N.N.N.N.N.O $ & & & & & N.N.N.N.N.N.N.N.N.N.N.N.N.N.",
"N.N.N.N.N.N.N.N.N.N.N.X X + X + X X N.N.N.N.N.N.N.N.N.N.N.N.N.N."
};
