/* XPM */
static char *_673718742763[] = {
/* columns rows colors chars-per-pixel */
"32 32 164 2 ",
"   c #140024",
".  c #190126",
"X  c #1D0328",
"o  c #2C0C25",
"O  c #210629",
"+  c #25082B",
"@  c #2D0D2B",
"#  c #300F2C",
"$  c #380F2B",
"%  c #2E112D",
"&  c #381226",
"*  c #341129",
"=  c #3D152D",
"-  c #36182F",
";  c #3F182F",
":  c #2D0E31",
">  c #300E33",
",  c #2B1531",
"<  c #2D1A36",
"1  c #331034",
"2  c #3E1730",
"3  c #331E36",
"4  c #3C1A36",
"5  c #3A1539",
"6  c #3E2131",
"7  c #3E203C",
"8  c #39283D",
"9  c #481B2E",
"0  c #441A2B",
"q  c #421B32",
"w  c #4A1E31",
"e  c #421A3E",
"r  c #4F222C",
"t  c #54252D",
"y  c #5E2A2C",
"u  c #5A272B",
"i  c #422232",
"p  c #472339",
"a  c #542433",
"s  c #582633",
"d  c #5E2A37",
"f  c #5A3234",
"g  c #57353A",
"h  c #622D2D",
"j  c #612C36",
"k  c #672E38",
"l  c #6C3334",
"z  c #663038",
"x  c #6A3339",
"c  c #733732",
"v  c #7A3A34",
"b  c #71353A",
"n  c #7C3C3D",
"m  c #3F1940",
"M  c #3E3142",
"N  c #4C2145",
"B  c #57274B",
"V  c #5C2B4D",
"C  c #473844",
"Z  c #4D3C45",
"A  c #433645",
"S  c #5C2A51",
"D  c #652F4D",
"F  c #6A334B",
"G  c #7C3E48",
"H  c #663252",
"J  c #673558",
"K  c #6B3356",
"L  c #733B53",
"P  c #70375E",
"I  c #7B3D5C",
"U  c #743C60",
"Y  c #554447",
"T  c #584547",
"R  c #524349",
"E  c #59494C",
"W  c #5C5655",
"Q  c #5F5957",
"!  c #5F5C59",
"~  c #674D4D",
"^  c #754E46",
"/  c #7C5349",
"(  c #7B4751",
")  c #625C58",
"_  c #64615B",
"`  c #7F4262",
"'  c #6E6E63",
"]  c #6F7267",
"[  c #833E39",
"{  c #854237",
"}  c #85423A",
"|  c #964C3D",
" . c #9F523F",
".. c #884440",
"X. c #974D43",
"o. c #965045",
"O. c #9B5546",
"+. c #884652",
"@. c #884557",
"#. c #855E51",
"$. c #8B525B",
"%. c #A05340",
"&. c #A45848",
"*. c #AE5B43",
"=. c #B15E4A",
"-. c #AC5A51",
";. c #97614C",
":. c #966A50",
">. c #996B50",
",. c #AA614B",
"<. c #B2614B",
"1. c #BA634C",
"2. c #B16F5A",
"3. c #B37754",
"4. c #934F6E",
"5. c #95506F",
"6. c #934D73",
"7. c #9B5475",
"8. c #A55877",
"9. c #A05579",
"0. c #AF5F7D",
"q. c #AD5F75",
"w. c #B15F76",
"e. c #A5626A",
"r. c #AE6075",
"t. c #B3637B",
"y. c #B8687A",
"u. c #C06649",
"i. c #C66C4D",
"p. c #C96C4E",
"a. c #D2724F",
"s. c #C06652",
"d. c #C37D5D",
"f. c #D47351",
"g. c #D97652",
"h. c #E37C54",
"j. c #EA7E55",
"k. c #D27267",
"l. c #D97862",
"z. c #DB7667",
"x. c #E07865",
"c. c #B28259",
"v. c #DB8A5B",
"b. c #EC8156",
"n. c #EA8558",
"m. c #EA8C5B",
"M. c #F28558",
"N. c #F28457",
"B. c #EA935E",
"V. c #E1935E",
"C. c #EA9E63",
"Z. c #F09760",
"A. c #F29C61",
"S. c #EAA465",
"D. c #EEA867",
"F. c #EAAD6A",
"G. c #F1A767",
"H. c #F2AC69",
"J. c #EAB06B",
"K. c #F0B66E",
"L. c #AA5C82",
"P. c #C36B86",
"I. c #D27F83",
"U. c None",
/* pixels */
"U.U.U.U.U.U.U.U.U.X X X X X X X X X X X X U.U.U.U.U.U.U.U.U.U.U.",
"U.U.U.U.U.U.U.U.2 d d j j d j j d d j d j q U.U.U.U.U.U.U.U.U.U.",
"U.U.U.U.U.U.U.X s 1.g.f.f.f.f.f.f.f.f.g.i.x O U.U.U.U.U.U.U.U.U.",
"U.U.U.U.U.U.@ k O.v.A.C.C.A.A.A.A.A.A.A.Z.,.b = U.U.U.U.U.U.U.U.",
"U.U.U.U.U.+ r =.m.S.J.J.F.J.F.F.F.F.J.J.F.Z.s.d + U.U.U.U.U.U.U.",
"U.U.U.U.@ b &.v.D.J.J.J.J.J.J.J.J.J.J.J.J.D.C.=.G 2 U.U.U.U.U.U.",
"U.U.U.U.> o.m.D.J.J.J.J.J.J.J.J.J.J.J.J.J.J.F.Z.<.q   U.U.U.U.U.",
"U.U.U.U.% ;.D.J.J.F.J.J.J.J.J.J.J.J.J.J.J.J.J.F.3.q   U.U.U.U.U.",
"U.U.U.  @ >.J.J.J.J.J.J.J.J.J.J.J.F.J.J.J.J.J.K.c.4   U.U.U.U.U.",
"O O X . # >.J.K.J.J.J.J.J.J.J.F.J.J.J.J.J.J.J.K.c.6 . X O X U.U.",
"X 1 B S H 2.S.F.J.J.J.J.F.J.J.J.J.J.J.J.J.J.F.S.d.L V V 5 O U.U.",
"X N 6.L.0.k.m.S.J.F.J.J.J.J.J.J.J.J.J.J.J.J.F.B.l.t.L.9.S + U.U.",
"U.e J 6.P.k.m.S.J.J.J.J.J.J.F.J.J.J.J.J.J.J.F.m.x.P.7.K N U.U.U.",
"U.U.+ H 9.k.n.C.J.J.J.J.J.J.J.J.F.J.J.J.J.F.S.m.z.w.U , U.U.U.U.",
"U.U.U.5 V -.b.m.C.F.J.J.J.J.J.J.J.J.J.J.F.C.m.N.s.F m U.U.U.U.U.",
"U.U.U.U.@ X.b.N.n.S.S.D.F.J.J.J.J.F.D.D.S.m.b.N.=.=   U.U.U.U.U.",
"U.U.U.U.@ X.N.b.n.n.n.m.S.J.J.J.J.S.B.n.n.n.b.N.=.;   U.U.U.U.U.",
"U.U.U.U.@ n =.g.b.b.h.b.m.C.S.C.S.B.n.h.b.N.h.1.} ; U.U.U.U.U.U.",
"U.U.U.U.U.@ a 1.b.b.b.j.n.n.n.n.n.n.b.j.b.b.p.z * U.U.U.U.U.U.U.",
"U.U.U.U.U.o 0 } u.h.N.N.b.h.j.j.j.b.b.M.b.p.| t o + U.U.U.U.U.U.",
"U.U.U.U.+ w j h } p.h.h.h.j.b.b.b.h.h.g.g.| f j t + X U.U.U.U.U.",
"U.U.U.U.+ D @.x y l n | i.N.N.N.M.a. .} x y d @.L 1 . U.U.U.U.U.",
"U.U.U.U.: ` t.+.s @ * y  .a.f.a.g.*.l & + 9 ( t.4.5 . U.U.U.U.U.",
"U.U.U.U.: $.I.y.I 1 o u c { { { { v y & + K w.z.e.4 . U.U.U.U.U.",
"U.U.U.U.@ ( e.7.P 7 6 f f f f f f f f i 3 J 5.e.$.4 U.U.U.U.U.U.",
"U.U.U.U.U.4 4 5 7 C Y T T Y T Y T T T Y Z 7 5 4 4 U.U.U.U.U.U.U.",
"U.U.U.U.U.U.  . % R W ) _ ! Z A W _ ) Q E 8 . . U.U.U.U.U.U.U.U.",
"U.U.U.U.U.U.U.X - Z ) ' ] _ 8 8 W ] ' ) Y 3 O U.U.U.U.U.U.U.U.U.",
"U.U.U.U.U.U.U.O * g ^ #.~ A < , M E #./ g 2 X U.U.U.U.U.U.U.U.U.",
"U.U.U.U.U.U.U.X @ t l } s + U.U.X r [ v u * + U.U.U.U.U.U.U.U.U.",
"U.U.U.U.U.U.U.U.+ * = w = U.U.U.U.$ w 0 * @ U.U.U.U.U.U.U.U.U.U.",
"U.U.U.U.U.U.U.U.U.O X X U.U.U.U.U.U.X X X U.U.U.U.U.U.U.U.U.U.U."
};
