/* XPM */
static char *_673535234146[] = {
/* columns rows colors chars-per-pixel */
"32 32 187 2 ",
"   c #140024",
".  c #190026",
"X  c #1C0328",
"o  c #21062A",
"O  c #260B2D",
"+  c #2D0D2C",
"@  c #300C26",
"#  c #2D112E",
"$  c #34112C",
"%  c #3D162D",
"&  c #391226",
"*  c #2E0F31",
"=  c #2E1934",
"-  c #371533",
";  c #391633",
":  c #331C35",
">  c #3D1A35",
",  c #38143D",
"<  c #382439",
"1  c #43192C",
"2  c #491C2E",
"3  c #421B32",
"4  c #431E39",
"5  c #4C202E",
"6  c #53222E",
"7  c #59262C",
"8  c #5D292C",
"9  c #432033",
"0  c #4C2033",
"q  c #432B3B",
"w  c #4A2A3B",
"e  c #562331",
"r  c #5E2934",
"t  c #572737",
"y  c #4A313B",
"u  c #5C3435",
"i  c #5C393B",
"p  c #632C2E",
"a  c #6A2F2D",
"s  c #6C302E",
"d  c #612C37",
"f  c #672E38",
"g  c #6C3133",
"h  c #6D343A",
"j  c #613C3B",
"k  c #63313F",
"l  c #733432",
"z  c #7D3B34",
"x  c #71343B",
"c  c #7D3C3C",
"v  c #783733",
"b  c #71403F",
"n  c #3E1841",
"m  c #482F42",
"M  c #5A2F43",
"N  c #5A2C45",
"B  c #4A3745",
"V  c #483742",
"C  c #5D3145",
"Z  c #5F2D53",
"A  c #602F4E",
"S  c #64344B",
"D  c #6C3C4B",
"F  c #6A334A",
"G  c #743B41",
"H  c #673551",
"J  c #70385D",
"K  c #524147",
"L  c #594547",
"P  c #5A4C4D",
"I  c #55484C",
"U  c #5F514F",
"Y  c #5C5756",
"T  c #5C5758",
"R  c #764544",
"E  c #754252",
"W  c #7B4652",
"Q  c #7E4B55",
"!  c #615A57",
"~  c #63635D",
"^  c #6A665D",
"/  c #696A61",
"(  c #676960",
")  c #833C35",
"_  c #833F3C",
"`  c #884037",
"'  c #84423D",
"]  c #94463A",
"[  c #99493C",
"{  c #A24F3E",
"}  c #A5503E",
"|  c #874747",
" . c #9B4E41",
".. c #904941",
"X. c #9C5245",
"o. c #965045",
"O. c #864B51",
"+. c #885057",
"@. c #8A535A",
"#. c #91565D",
"$. c #95595E",
"%. c #9B5858",
"&. c #A14F41",
"*. c #AE5A4C",
"=. c #A55545",
"-. c #B25E49",
";. c #97614C",
":. c #986B50",
">. c #AA614B",
",. c #B3624B",
"<. c #B9634B",
"1. c #B96655",
"2. c #B37754",
"3. c #8F4F6B",
"4. c #9A5D61",
"5. c #98556E",
"6. c #9D5971",
"7. c #A45B76",
"8. c #B15F76",
"9. c #9D6063",
"0. c #A16264",
"q. c #A86767",
"w. c #AC6969",
"e. c #A96867",
"r. c #B46F6C",
"t. c #B87865",
"y. c #BC6D7E",
"u. c #B3667E",
"i. c #BD7571",
"p. c #C56B4F",
"a. c #C86C4F",
"s. c #C26E5D",
"d. c #C06651",
"f. c #D37351",
"g. c #D87652",
"h. c #E37E5C",
"j. c #C67666",
"k. c #DD7A62",
"l. c #D5736A",
"z. c #D9756B",
"x. c #D87868",
"c. c #D47768",
"v. c #C36C7D",
"b. c #C86F78",
"n. c #C47C74",
"m. c #CD7178",
"M. c #B28159",
"N. c #DB8A5B",
"B. c #E4805D",
"V. c #EA8659",
"C. c #EA8A5A",
"Z. c #EA935E",
"A. c #E1935E",
"S. c #C38D64",
"D. c #CD8178",
"F. c #D68474",
"G. c #D3857A",
"H. c #DB837C",
"J. c #DC8C7E",
"K. c #D98A75",
"L. c #D99871",
"P. c #E38C64",
"I. c #E48768",
"U. c #E69163",
"Y. c #F09760",
"T. c #F29C61",
"R. c #E18F7F",
"E. c #E0907F",
"W. c #EBA464",
"Q. c #EDA867",
"!. c #EAAE6A",
"~. c #F2AC69",
"^. c #F1A767",
"/. c #EAB16C",
"(. c #F0B66E",
"). c #B66381",
"_. c #BB6783",
"`. c #BE6980",
"'. c #C06B88",
"]. c #C67484",
"[. c #CB7985",
"{. c #C97681",
"}. c #DD8B83",
"|. c #D78680",
" X c #E08F80",
".X c #E39180",
"XX c None",
/* pixels */
"XXXXXXXXXXXXXXXXXXX X X . X X X X X X X X XXXXXXXXXXXXXXXXXXXXXX",
"XXXXXXXXXXXXXXXX; r d d d r d r r d d r d 3 XXXXXXXXXXXXXXXXXXXX",
"XXXXXXXXXXXXXXX t <.g.f.f.f.f.f.f.f.f.g.a.h o XXXXXXXXXXXXXXXXXX",
"XXXXXXXXXXXX+ f X.N.T.T.T.T.T.T.T.T.T.^.Z.>.x ; XXXXXXXXXXXXXXXX",
"XXXXXXXXXXO 2 -.C.!.!.!.!.!.!.!.!.!.!./.!.U.p.r O XXXXXXXXXXXXXX",
"XXXXXXXX+ x =.N.Q.!./././././././././././.Q.A.,.c % XXXXXXXXXXXX",
"XXXXXXXX# o.Z.Q./././././././.!./.!././././.!.T.,.3   XXXXXXXXXX",
"XXXXXXXX# %.Q.(./././././././././././././././.~.2.> . XXXXXXXXXX",
"XXXXXX  # :./././.W.W.W.W.W.W.W.W.W.W.T.W.!./.(.M.>   XXXXXXXXXX",
"o o X . # :././.Q.A.V.C.V.V.V.V.C.C.C.V.C.W./.(.M.9 . X X o XXXX",
"X ; S S H t./.^.U.l.c.l.z.c.l.l.l.l.z.z.c.P.W.~.S.E Z D 9 o XXXX",
"X M r.y.u.K.Q.C.k.v.).u.)._._._._.).8.u.'.c.C.^.L.u.y.i.D O XXXX",
"XXw E 6.'.K.U.z.m.m.6.J 5.].[.[.[.7.J 3.].b.l.P.I.].7.Q M XXXXXX",
"XXXXO Z 7.l.h.b.].|.@.- Q J. XJ. X4.> D G.[.'.k.l.8.J * XXXXXXXX",
"XXXXXX, N *.h.H.}.}.+.# W J.E.E.E.$.* D G. XH.I.d.F n XXXXXXXXXX",
"XXXXXXXX@  .h.j.i.}.9.C #.J.E.E.E.q.S @.H.n.t.B.-.>   XXXXXXXXXX",
"XXXXXXXX+ X.f.G D n.G.i.n.J. XE.E.G.i.G.G.O.S p.,.1   XXXXXXXXXX",
"XXXXXXXX* _ ..2 4 @.0.4.0.4.4.4.4.4.0.0.#.t % ' ..% XXXXXXXXXXXX",
"XXXXXXXXXX$ % 6 6 3 - ; ; ; ; - ; ; - - % 2 6 1 $ XXXXXXXXXXXXXX",
"XXXXXXXXXX1 e l s 1 1 6 e 6 6 6 6 6 6 1 1 d l p 2 + XXXXXXXXXXXX",
"XXXXXXXXO h  .{ ` p g ] [ [ [ [ [ [ ] l p z { { c $ . XXXXXXXXXX",
"XXXXXXXX+ | s.-.) 2 6 v ] } } { { [ ) 7 1 l &.s.%.; . XXXXXXXXXX",
"XXXXXXXX* #.F.s.c $ @ 8 ) ] [ ] ] ) p & + h ,.H.q.>   XXXXXXXXXX",
"XXXXXXXX* #.E.J.%.% @ 7 s s s s l s p & + O.F. Xe.> . XXXXXXXXXX",
"XXXXXXXX* W q.w.@.V q j j u u u u u j y m Q w.w.+.> XXXXXXXXXXXX",
"XXXXXXXXXX> 4 > m Y ( ^ ! L L L L Y ^ ( T B > > > XXXXXXXXXXXXXX",
"XXXXXXXXXXXX    = Y ^ ^ Y I V V I Y ~ / ~ < .   XXXXXXXXXXXXXXXX",
"XXXXXXXXXXXXXXo = K U P P K : = V P P U I < o XXXXXXXXXXXXXXXXXX",
"XXXXXXXXXXXXXXX ; x R j y < # O : q u b R 0 o XXXXXXXXXXXXXXXXXX",
"XXXXXXXXXXXXXXX 3 ) b p % o XXXXo $ 7 v _ 0 o XXXXXXXXXXXXXXXXXX",
"XXXXXXXXXXXXXXXX% 1 1 $ + XXXXXXXX+ $ % 2 ; XXXXXXXXXXXXXXXXXXXX",
"XXXXXXXXXXXXXXXXXXX X X XXXXXXXXXXXXX X X XXXXXXXXXXXXXXXXXXXXXX"
};
