/* XPM */
static char *_673535187266[] = {
/* columns rows colors chars-per-pixel */
"32 32 64 1 ",
"  c black",
". c #010101",
"X c #020202",
"o c gray1",
"O c #040404",
"+ c gray2",
"@ c #060606",
"# c #070707",
"$ c gray3",
"% c #090909",
"& c gray4",
"* c #0B0B0B",
"= c #0C0C0C",
"- c gray5",
"; c #0E0E0E",
": c gray6",
"> c #111111",
", c gray7",
"< c #131313",
"1 c #151515",
"2 c #161616",
"3 c gray9",
"4 c #181818",
"5 c #191919",
"6 c gray10",
"7 c gray11",
"8 c #1D1D1D",
"9 c #1E1E1E",
"0 c gray12",
"q c #202020",
"w c gray13",
"e c #222222",
"r c #232323",
"t c gray14",
"y c #252525",
"u c gray15",
"i c #272727",
"p c #282828",
"a c gray16",
"s c #2A2A2A",
"d c gray17",
"f c #2C2C2C",
"g c #2D2D2D",
"h c gray18",
"j c #2F2F2F",
"k c gray19",
"l c #313131",
"z c #323232",
"x c gray20",
"c c #353535",
"v c gray21",
"b c gray22",
"n c #3E3E3E",
"m c #3F3F3F",
"M c #414141",
"N c gray26",
"B c #444444",
"V c gray27",
"C c #464646",
"Z c gray28",
"A c #484848",
"S c #494949",
"D c gray29",
"F c None",
/* pixels */
"FFFFFFFFFFFFFFFFFFFFFFFFFFFFFFFF",
"FFFFFFFFFFFFFFFFFFFFFFFFFFFFFFFF",
"FFF                         FFFF",
"FFF<:o><<<<<<<<<<<=+,<<<<<<<<FFF",
"FFFDb-MDSSSSSSSSSDg,ZSSSSSSSSFFF",
"FFFca%jccccccccccvq-xccccccccFFF",
"FFFhr$phhhhhhhhhhh7*fhhhhhhhhFFF",
"FFFjr$ahhhhhhhhhhj7*ghhhhhhhhFFF",
"FFFge$pggggggggggh7*dggggggggFFF",
"FFF*$.%*****=*****@X&*****=**FFF",
"FFFwwwwwwww3@0wwwwwwwwwww>&wwFFF",
"FFFSSSSSSSDx:BSSSSSSSSSSDi3ASFFF",
"FFFlllllllle&glllllllllll6:klFFF",
"FFFhhhhhhhjq%dhhhhhhhhhhj4;ghFFF",
"FFFhhhhhhhjq%djhhhhhhhhhj5;hhFFF",
"FFFaaaaaaaa7$uaaaaaaaaaaa2-paFFF",
"FFF++++++++O.++++++++++++o.++FFF",
"FFFlllh&qlllllllll9=jllllllllFFF",
"FFFVVVM:hCVVVVVVVCs>NVVVVVVVVFFF",
"FFFhhhf&0jhhhhhhhj7*ghhhhhhhhFFF",
"FFFhhhd&0jhhhhhhhj7*fhhhhhhhhFFF",
"FFFjjjf&0kjjjjjjjk8=gjjjjjjjjFFF",
"FFFeeeq#3eeeeeeeee1$weeeeeeeeFFF",
"FFF@@@+++@@@+X+@@@+++@@@@@@+XFFF",
"FFFnnnnnnnnmz&cmnnnnnnnnnnmlOFFF",
"FFFnnnnnnnnmx&cmnnnnnnnnnnmlOFFF",
"FFFhhhhhhhhhy#ihhhhhhhhhhhhtoFFF",
"FFFhhhhhhhhjy#ihhhhhhhhhhhjtoFFF",
"FFFhhhhhhhhjy#ihhhhhhhhhhhjtoFFF",
"FFFhhhhhhhhjy#ihhhhhhhhhhhjtFFFF",
"FFFFFFFFFFFFFFFFFFFFFFFFFFFFFFFF",
"FFFFFFFFFFFFFFFFFFFFFFFFFFFFFFFF"
};
